<svg viewBox="0 0 27 27" fill="none" xmlns="http://www.w3.org/2000/svg">
<path d="M13.5 3C7.7168 3 3 7.7168 3 13.5C3 19.2832 7.7168 24 13.5 24C19.2832 24 24 19.2832 24 13.5C24 7.7168 19.2832 3 13.5 3ZM17.9605 8.9165C18.3091 8.88062 18.6526 8.98315 18.9243 9.20361C19.4832 9.66504 19.5652 10.4905 19.1089 11.0493L13.2026 18.2681C12.9668 18.5552 12.6233 18.7295 12.2541 18.75C11.885 18.7654 11.521 18.627 11.2595 18.3655L7.97827 15.0842C7.46558 14.5715 7.46558 13.741 7.97827 13.2283C8.49097 12.7156 9.32153 12.7156 9.83423 13.2283L12.0901 15.4841L17.0786 9.38818C17.2991 9.12158 17.6169 8.94727 17.9605 8.91138V8.9165Z" fill="currentColor"/>
</svg>
