<svg viewBox="0 0 35 35" fill="none" xmlns="http://www.w3.org/2000/svg">
<path d="M29.5198 5.00002H27.3496C27.3044 5.00002 27.2642 5.01555 27.2221 5.02573V2.74684C27.2221 1.23211 25.9618 0 24.4124 0H5.5875C4.03804 0 2.77771 1.23211 2.77771 2.74684V28.3643C2.77771 29.879 4.03804 31.1111 5.5875 31.1111H8.88882V32.3514C8.88882 33.8119 10.1009 35 11.5912 35H29.5198C31.0101 35 32.2222 33.8119 32.2222 32.3514V7.64865C32.2222 6.18816 31.0101 5.00002 29.5198 5.00002ZM3.8888 28.3643V2.74684C3.8888 1.84516 4.65108 1.11114 5.5875 1.11114H24.4124C25.3488 1.11114 26.1111 1.84516 26.1111 2.74684V28.3643C26.1111 29.266 25.3488 30 24.4124 30H5.5875C4.65108 30 3.8888 29.266 3.8888 28.3643ZM31.111 32.3514C31.111 33.1994 30.3971 33.8889 29.5198 33.8889H11.5912C10.7139 33.8889 9.9999 33.1994 9.9999 32.3514V31.1111H24.4124C25.9618 31.1111 27.2221 29.879 27.2221 28.3643V6.08541C27.2642 6.09558 27.3044 6.11111 27.3496 6.11111H29.5198C30.3971 6.11111 31.111 6.80066 31.111 7.64865V32.3514Z" fill="currentColor"/>
<path d="M21.111 7.22229H8.88882C8.58175 7.22229 8.33325 7.47074 8.33325 7.77781C8.33325 8.08493 8.58175 8.33338 8.88882 8.33338H21.111C21.4181 8.33338 21.6666 8.08493 21.6666 7.77781C21.6666 7.47074 21.4181 7.22229 21.111 7.22229Z" fill="currentColor"/>
<path d="M21.111 11.6667H8.88882C8.58175 11.6667 8.33325 11.9152 8.33325 12.2223C8.33325 12.5293 8.58175 12.7778 8.88882 12.7778H21.111C21.4181 12.7778 21.6666 12.5293 21.6666 12.2223C21.6666 11.9152 21.4181 11.6667 21.111 11.6667Z" fill="currentColor"/>
<path d="M21.111 16.1111H8.88882C8.58175 16.1111 8.33325 16.3596 8.33325 16.6667C8.33325 16.9737 8.58175 17.2222 8.88882 17.2222H21.111C21.4181 17.2222 21.6666 16.9737 21.6666 16.6667C21.6666 16.3596 21.4181 16.1111 21.111 16.1111Z" fill="currentColor"/>
<path d="M15.5555 20.5555H8.88882C8.58175 20.5555 8.33325 20.804 8.33325 21.1111C8.33325 21.4182 8.58175 21.6667 8.88882 21.6667H15.5555C15.8626 21.6667 16.111 21.4182 16.111 21.1111C16.111 20.804 15.8626 20.5555 15.5555 20.5555Z" fill="currentColor"/>
</svg>
