<svg viewBox="0 0 35 28" fill="none" xmlns="http://www.w3.org/2000/svg">
<path d="M12 15.8571H23M17.5 10.2857V21.4286M17.615 2.97366L17.385 2.74063C16.7509 2.09822 16.4337 1.77703 16.0638 1.54734C15.7356 1.34368 15.3779 1.19361 15.0039 1.10263C14.5819 1 14.1334 1 13.2366 1H6.86667C4.81315 1 3.78637 1 3.00204 1.40484C2.3121 1.76093 1.75117 2.32914 1.39965 3.02804C1 3.82256 1 4.86265 1 6.94286V21.0571C1 23.1373 1 24.1775 1.39965 24.972C1.75117 25.6708 2.3121 26.2391 3.00204 26.5951C3.78637 27 4.81313 27 6.86667 27H28.1333C30.1868 27 31.2137 27 31.998 26.5951C32.6879 26.2391 33.2489 25.6708 33.6003 24.972C34 24.1775 34 23.1373 34 21.0571V10.6571C34 8.57696 34 7.53685 33.6003 6.74232C33.2489 6.04342 32.6879 5.47521 31.998 5.11912C31.2137 4.71429 30.1868 4.71429 28.1333 4.71429H21.7634C20.8665 4.71429 20.4181 4.71429 19.9961 4.61166C19.6221 4.52068 19.2644 4.3706 18.9362 4.16695C18.5663 3.93726 18.2491 3.61606 17.615 2.97366Z" stroke="currentColor" stroke-width="2" stroke-linecap="round" stroke-linejoin="round"/>
</svg>
