<svg viewBox="0 0 46 36" fill="none" xmlns="http://www.w3.org/2000/svg">
<path d="M23.1533 3.58094L22.8467 3.2762C22.0012 2.43614 21.5783 2.01611 21.085 1.71575C20.6475 1.44943 20.1706 1.25318 19.6719 1.1342C19.1092 1 18.5113 1 17.3155 1H8.82222C6.0842 1 4.71516 1 3.66938 1.5294C2.74946 1.99506 2.00156 2.7381 1.53286 3.65205C1 4.69104 1 6.05116 1 8.77143V27.2286C1 29.9488 1 31.3091 1.53286 32.348C2.00156 33.2619 2.74946 34.005 3.66938 34.4706C4.71516 35 6.08417 35 8.82222 35H37.1778C39.9158 35 41.2849 35 42.3307 34.4706C43.2505 34.005 43.9985 33.2619 44.4671 32.348C45 31.3091 45 29.9488 45 27.2286V13.6286C45 10.9083 45 9.54818 44.4671 8.50919C43.9985 7.59525 43.2505 6.8522 42.3307 6.38655C41.2849 5.85714 39.9158 5.85714 37.1778 5.85714H28.6846C27.4887 5.85714 26.8908 5.85714 26.3281 5.72294C25.8294 5.60396 25.3525 5.40771 24.915 5.14139C24.4217 4.84103 23.9988 4.42101 23.1533 3.58094Z" stroke="currentColor" stroke-width="2" stroke-linecap="round" stroke-linejoin="round"/>
</svg>
