<svg viewBox="0 0 27 27" fill="none" xmlns="http://www.w3.org/2000/svg">
<path d="M11.3906 9.98438C11.3906 8.8194 12.3351 7.875 13.5 7.875C14.6649 7.875 15.6094 8.8194 15.6094 9.98438C15.6094 10.7578 15.1931 11.4339 14.5726 11.8011C14.0377 12.1175 13.5 12.5974 13.5 13.2188V14.625" stroke="currentColor" stroke-width="2" stroke-linecap="round"/>
<path d="M13.5 19.125C14.1213 19.125 14.625 18.6213 14.625 18C14.625 17.3787 14.1213 16.875 13.5 16.875C12.8787 16.875 12.375 17.3787 12.375 18C12.375 18.6213 12.8787 19.125 13.5 19.125Z" fill="currentColor"/>
<path d="M7.875 3.75505C9.52973 2.79784 11.4509 2.25 13.5 2.25C19.7131 2.25 24.75 7.28679 24.75 13.5C24.75 19.7131 19.7131 24.75 13.5 24.75C7.28679 24.75 2.25 19.7131 2.25 13.5C2.25 11.4509 2.79784 9.52973 3.75505 7.875" stroke="currentColor" stroke-width="2" stroke-linecap="round"/>
</svg>
