<svg  viewBox="0 0 55 55" fill="none" xmlns="http://www.w3.org/2000/svg">
<g clip-path="url(#clip0_138_13)">
<path d="M52.6752 25.5823C51.3948 25.5823 50.339 26.5145 50.339 27.8061C50.2267 36.2184 45.3748 43.8221 37.9508 47.8991C26.7643 54.0427 13.6909 48.528 8.68173 41.0479L15.7463 42.5192C16.9144 42.7551 18.1947 42.0475 18.4306 40.7671C18.6665 39.5991 17.9589 38.3187 16.6785 38.0828L2.78524 35.1627C1.97658 34.9717 -0.146158 35.5558 0.100934 37.7347L1.85303 51.7515C1.96535 52.9195 2.90879 53.7394 4.07685 53.7394C5.81772 53.7394 6.5253 52.459 6.41299 51.1674L5.59309 44.3275C16.9481 57.9512 31.358 56.0531 40.0511 52.1109C49.0474 47.3151 54.7755 38.0941 54.8878 27.9184C54.899 26.638 53.9556 25.5823 52.6752 25.5823Z" fill="currentColor"/>
<path d="M2.31366 29.4121C3.59404 29.4121 4.6498 28.4799 4.6498 27.1883C4.76211 18.776 9.61408 11.1723 17.038 7.09532C28.2245 0.951742 41.2979 6.46637 46.3071 13.9465L39.2425 12.4752C38.0745 12.2393 36.7941 12.9469 36.5582 14.2273C36.3224 15.3953 37.03 16.6757 38.3103 16.9116L52.2148 19.8317C53.0235 20.0227 55.1462 19.4386 54.8991 17.2598L53.147 3.24295C53.0347 2.07488 52.0913 1.25499 50.9232 1.25499C49.1823 1.25499 48.4748 2.53537 48.5871 3.82698L49.3957 10.6669C38.0408 -2.94556 23.6309 -1.05868 14.9378 2.89478C5.94141 7.67936 0.213389 16.9116 0.0898438 27.076C0.0898437 28.3676 1.03328 29.4121 2.31366 29.4121Z" fill="currentColor"/>
</g>
<defs>
<clipPath id="clip0_138_13">
<rect width="55" height="55" fill="currentColor"/>
</clipPath>
</defs>
</svg>
